<?xml version="1.0" encoding="UTF-8"?>
<svg xmlns="http://www.w3.org/2000/svg" xmlns:xlink="http://www.w3.org/1999/xlink" version="1.1" id="Capa_1" x="0px" y="0px" viewBox="0 0 512 512" style="enable-background:new 0 0 512 512;" xml:space="preserve" width="512" height="512">
<g>
	<path style="fill:none;stroke:#000000;stroke-width:30;stroke-linecap:round;stroke-linejoin:round;stroke-miterlimit:10;" d="&#10;&#9;&#9;M404.697,277.198c12.05,4.103,23.056,10.524,32.375,18.726l35.828-12.595l24.1,41.743l-28.759,24.686&#10;&#9;&#9;c1.204,6.053,1.767,12.31,1.767,18.71s-0.563,12.657-1.767,18.71L497,411.862l-24.1,41.743l-35.828-12.595&#10;&#9;&#9;c-9.319,8.202-20.325,14.621-32.375,18.726L397.708,497h-48.2l-6.989-37.264c-11.97-4.104-22.975-10.524-32.375-18.726&#10;&#9;&#9;l-35.748,12.595l-24.1-41.743l28.759-24.686c-1.205-6.053-1.848-12.309-1.848-18.71s0.642-12.657,1.848-18.71l-28.759-24.686&#10;&#9;&#9;l24.1-41.743l35.748,12.595c9.399-8.202,20.405-14.621,32.375-18.726l6.989-37.264h48.2L404.697,277.198z"/>
	
		<circle style="fill:none;stroke:#000000;stroke-width:30;stroke-linecap:round;stroke-linejoin:round;stroke-miterlimit:10;" cx="373.608" cy="368.467" r="32.133"/>
	
		<polygon style="fill:none;stroke:#000000;stroke-width:30;stroke-linecap:round;stroke-linejoin:round;stroke-miterlimit:10;" points="&#10;&#9;&#9;207.8,239.933 207.8,111.4 320.267,175.667 &#9;"/>
	<path style="fill:none;stroke:#000000;stroke-width:30;stroke-linecap:round;stroke-linejoin:round;stroke-miterlimit:10;" d="&#10;&#9;&#9;M263.391,336.333H15V15h482v321.333h-13.094L497,325.071l-24.1-41.743l-35.828,12.595c-9.319-8.202-20.325-14.622-32.375-18.726&#10;&#9;&#9;l-6.989-37.264h-48.2l-6.989,37.264c-11.97,4.104-22.975,10.524-32.375,18.726l-35.748-12.595l-24.1,41.743L263.391,336.333z"/>
</g>















</svg>
