<?xml version="1.0" encoding="UTF-8" standalone="no"?>
<!-- Created with Inkscape (http://www.inkscape.org/) -->

<svg
   version="1.1"
   id="svg636"
   xml:space="preserve"
   width="682.66669"
   height="682.66669"
   viewBox="0 0 682.66669 682.66669"
   xmlns="http://www.w3.org/2000/svg"
   xmlns:svg="http://www.w3.org/2000/svg"><defs
     id="defs640"><clipPath
       clipPathUnits="userSpaceOnUse"
       id="clipPath650"><path
         d="M 0,512 H 512 V 0 H 0 Z"
         id="path648" /></clipPath></defs><g
     id="g642"
     transform="matrix(1.3333333,0,0,-1.3333333,0,682.66667)"><g
       id="g644"><g
         id="g646"
         clip-path="url(#clipPath650)"><g
           id="g652"
           transform="translate(146,237)"><path
             d="m 0,0 v 0 c 44.183,0 80,-35.817 80,-80 v -20 H -80 v 20 c 0,44.183 35.817,80 80,80 z"
             style="fill:none;stroke:#000000;stroke-width:30;stroke-linecap:round;stroke-linejoin:round;stroke-miterlimit:10;stroke-dasharray:none;stroke-opacity:1"
             id="path654" /></g><g
           id="g656"
           transform="translate(96,287)"><path
             d="m 0,0 c 0,-27.614 22.386,-50 50,-50 27.614,0 50,22.386 50,50 C 100,27.614 77.614,50 50,50 22.386,50 0,27.614 0,0 Z"
             style="fill:none;stroke:#000000;stroke-width:30;stroke-linecap:round;stroke-linejoin:round;stroke-miterlimit:10;stroke-dasharray:none;stroke-opacity:1"
             id="path658" /></g><g
           id="g660"
           transform="translate(497,137)"><path
             d="m 0,0 h -482 v 330 c 0,16.568 13.432,30 30,30 h 422 c 16.568,0 30,-13.432 30,-30 z"
             style="fill:none;stroke:#000000;stroke-width:30;stroke-linecap:round;stroke-linejoin:round;stroke-miterlimit:10;stroke-dasharray:none;stroke-opacity:1"
             id="path662" /></g><g
           id="g664"
           transform="translate(156,45)"><path
             d="m 0,0 c 0,-16.568 -13.432,-30 -30,-30 -16.568,0 -30,13.432 -30,30 0,16.568 13.432,30 30,30 C -13.432,30 0,16.568 0,0 Z"
             style="fill:none;stroke:#000000;stroke-width:30;stroke-linecap:round;stroke-linejoin:round;stroke-miterlimit:10;stroke-dasharray:none;stroke-opacity:1"
             id="path666" /></g><g
           id="g668"
           transform="translate(497,45)"><path
             d="M 0,0 H -341"
             style="fill:none;stroke:#000000;stroke-width:30;stroke-linecap:round;stroke-linejoin:round;stroke-miterlimit:10;stroke-dasharray:none;stroke-opacity:1"
             id="path670" /></g><g
           id="g672"
           transform="translate(96,45)"><path
             d="M 0,0 H -81"
             style="fill:none;stroke:#000000;stroke-width:30;stroke-linecap:round;stroke-linejoin:round;stroke-miterlimit:10;stroke-dasharray:none;stroke-opacity:1"
             id="path674" /></g><g
           id="g676"
           transform="translate(256,437)"><path
             d="m 0,0 v -200 l 60,40 H 180 V 0 Z"
             style="fill:none;stroke:#000000;stroke-width:30;stroke-linecap:round;stroke-linejoin:round;stroke-miterlimit:10;stroke-dasharray:none;stroke-opacity:1"
             id="path678" /></g><g
           id="g680"
           transform="translate(311,383.6665)"><path
             d="M 0,0 H 70"
             style="fill:none;stroke:#000000;stroke-width:30;stroke-linecap:round;stroke-linejoin:round;stroke-miterlimit:10;stroke-dasharray:none;stroke-opacity:1"
             id="path682" /></g><g
           id="g684"
           transform="translate(311,330.3335)"><path
             d="M 0,0 H 70"
             style="fill:none;stroke:#000000;stroke-width:30;stroke-linecap:round;stroke-linejoin:round;stroke-miterlimit:10;stroke-dasharray:none;stroke-opacity:1"
             id="path686" /></g></g></g></g></svg>
