<?xml version="1.0" encoding="UTF-8" standalone="no"?>
<!-- Created with Inkscape (http://www.inkscape.org/) -->

<svg
   version="1.1"
   id="svg1167"
   xml:space="preserve"
   width="682.66669"
   height="682.66669"
   viewBox="0 0 682.66669 682.66669"
   xmlns="http://www.w3.org/2000/svg"
   xmlns:svg="http://www.w3.org/2000/svg"><defs
     id="defs1171"><clipPath
       clipPathUnits="userSpaceOnUse"
       id="clipPath1181"><path
         d="M 0,512 H 512 V 0 H 0 Z"
         id="path1179" /></clipPath></defs><g
     id="g1173"
     transform="matrix(1.3333333,0,0,-1.3333333,0,682.66667)"><g
       id="g1175"><g
         id="g1177"
         clip-path="url(#clipPath1181)"><g
           id="g1183"
           transform="translate(75,316)"><path
             d="m 0,0 c -8.284,0 -15,6.716 -15,15 0,8.284 6.716,15 15,15 C 8.284,30 15,23.284 15,15 15,6.716 8.284,0 0,0"
             style="fill:#000000;fill-opacity:1;fill-rule:nonzero;stroke:none"
             id="path1185" /></g><g
           id="g1187"
           transform="translate(237.4268,202.2129)"><path
             d="m 0,0 c -11.717,11.716 -30.711,11.716 -42.427,0 -11.716,11.716 -30.71,11.716 -42.427,0 -11.715,-11.716 -11.715,-30.71 0,-42.426 L -42.427,-84.853 0,-42.426 C 11.716,-30.71 11.716,-11.716 0,0 Z"
             style="fill:none;stroke:#000000;stroke-width:30;stroke-linecap:round;stroke-linejoin:round;stroke-miterlimit:10;stroke-dasharray:none;stroke-opacity:1"
             id="path1189" /></g><path
           d="M 375,61 H 15 v 210 h 360 z"
           style="fill:none;stroke:#000000;stroke-width:30;stroke-linecap:round;stroke-linejoin:round;stroke-miterlimit:10;stroke-dasharray:none;stroke-opacity:1"
           id="path1191" /><g
           id="g1193"
           transform="translate(375,181)"><path
             d="M 0,0 122,60 V -90 L 0,-30"
             style="fill:none;stroke:#000000;stroke-width:30;stroke-linecap:round;stroke-linejoin:round;stroke-miterlimit:10;stroke-dasharray:none;stroke-opacity:1"
             id="path1195" /></g><g
           id="g1197"
           transform="translate(259.752,447.4102)"><path
             d="m 0,0 c -37.416,-10.914 -64.752,-45.47 -64.752,-86.41 0,-49.706 40.294,-90 90,-90 49.706,0 90,40.294 90,90 0,49.705 -40.294,90 -90,90 C 16.482,3.59 8.011,2.337 0,0 Z"
             style="fill:none;stroke:#000000;stroke-width:30;stroke-linecap:round;stroke-linejoin:round;stroke-miterlimit:10;stroke-dasharray:none;stroke-opacity:1"
             id="path1199" /></g><g
           id="g1201"
           transform="translate(259.752,447.4102)"><path
             d="M 0,0 -201.585,-58.803"
             style="fill:none;stroke:#000000;stroke-width:30;stroke-linecap:round;stroke-linejoin:round;stroke-miterlimit:10;stroke-dasharray:none;stroke-opacity:1"
             id="path1203" /></g><g
           id="g1205"
           transform="translate(135,331)"><path
             d="m 0,0 c 0,-33.137 -26.863,-60 -60,-60 -33.137,0 -60,26.863 -60,60 0,27.293 18.225,50.331 43.167,57.607 C -71.492,59.165 -65.843,60 -60,60 -26.863,60 0,33.137 0,0 Z"
             style="fill:none;stroke:#000000;stroke-width:30;stroke-linecap:round;stroke-linejoin:round;stroke-miterlimit:10;stroke-dasharray:none;stroke-opacity:1"
             id="path1207" /></g><g
           id="g1209"
           transform="translate(315,361)"><path
             d="m 0,0 c 0,-16.569 -13.432,-30 -30,-30 -16.568,0 -30,13.431 -30,30 0,16.569 13.432,30 30,30 C -13.432,30 0,16.569 0,0 Z"
             style="fill:none;stroke:#000000;stroke-width:30;stroke-linecap:round;stroke-linejoin:round;stroke-miterlimit:10;stroke-dasharray:none;stroke-opacity:1"
             id="path1211" /></g></g></g></g></svg>
