<?xml version="1.0" encoding="UTF-8" standalone="no"?>
<!-- Created with Inkscape (http://www.inkscape.org/) -->

<svg
   version="1.1"
   id="svg4173"
   xml:space="preserve"
   width="682.66669"
   height="682.66669"
   viewBox="0 0 682.66669 682.66669"
   xmlns="http://www.w3.org/2000/svg"
   xmlns:svg="http://www.w3.org/2000/svg"><defs
     id="defs4177"><clipPath
       clipPathUnits="userSpaceOnUse"
       id="clipPath4187"><path
         d="M 0,512 H 512 V 0 H 0 Z"
         id="path4185" /></clipPath></defs><g
     id="g4179"
     transform="matrix(1.3333333,0,0,-1.3333333,0,682.66667)"><g
       id="g4181"><g
         id="g4183"
         clip-path="url(#clipPath4187)"><g
           id="g4189"
           transform="translate(477,117)"><path
             d="m 0,0 h -442 c -11.046,0 -20,8.954 -20,20 v 340 c 0,11.046 8.954,20 20,20 H 0 c 11.046,0 20,-8.954 20,-20 V 20 C 20,8.954 11.046,0 0,0 Z"
             style="fill:none;stroke:#000000;stroke-width:30;stroke-linecap:round;stroke-linejoin:round;stroke-miterlimit:10;stroke-dasharray:none;stroke-opacity:1"
             id="path4191" /></g><g
           id="g4193"
           transform="translate(336,15)"><path
             d="m 0,0 h -160 l 30,102 h 100 z"
             style="fill:none;stroke:#000000;stroke-width:30;stroke-linecap:round;stroke-linejoin:round;stroke-miterlimit:10;stroke-dasharray:none;stroke-opacity:1"
             id="path4195" /></g><g
           id="g4197"
           transform="translate(241,377)"><path
             d="M 0,0 V -120 H -140 V 0"
             style="fill:none;stroke:#000000;stroke-width:30;stroke-linecap:round;stroke-linejoin:round;stroke-miterlimit:10;stroke-dasharray:none;stroke-opacity:1"
             id="path4199" /></g><g
           id="g4201"
           transform="translate(76,355.5713)"><path
             d="M 0,0 95,81.429 190,0"
             style="fill:none;stroke:#000000;stroke-width:30;stroke-linecap:round;stroke-linejoin:round;stroke-miterlimit:10;stroke-dasharray:none;stroke-opacity:1"
             id="path4203" /></g><g
           id="g4205"
           transform="translate(171,257)"><path
             d="M 0,0 V 40"
             style="fill:none;stroke:#000000;stroke-width:30;stroke-linecap:round;stroke-linejoin:round;stroke-miterlimit:10;stroke-dasharray:none;stroke-opacity:1"
             id="path4207" /></g><g
           id="g4209"
           transform="translate(161,357)"><path
             d="M 0,0 H 20"
             style="fill:none;stroke:#000000;stroke-width:30;stroke-linecap:round;stroke-linejoin:round;stroke-miterlimit:10;stroke-dasharray:none;stroke-opacity:1"
             id="path4211" /></g><g
           id="g4213"
           transform="translate(497,187)"><path
             d="m 0,0 h -482 v -50 c 0,-11.046 8.954,-20 20,-20 h 442 c 11.046,0 20,8.954 20,20 z"
             style="fill:none;stroke:#000000;stroke-width:30;stroke-linecap:round;stroke-linejoin:round;stroke-miterlimit:10;stroke-dasharray:none;stroke-opacity:1"
             id="path4215" /></g><g
           id="g4217"
           transform="translate(146,15)"><path
             d="M 0,0 H 220"
             style="fill:none;stroke:#000000;stroke-width:30;stroke-linecap:round;stroke-linejoin:round;stroke-miterlimit:10;stroke-dasharray:none;stroke-opacity:1"
             id="path4219" /></g><g
           id="g4221"
           transform="translate(316,407)"><path
             d="M 0,0 H 120"
             style="fill:none;stroke:#000000;stroke-width:30;stroke-linecap:round;stroke-linejoin:round;stroke-miterlimit:10;stroke-dasharray:none;stroke-opacity:1"
             id="path4223" /></g><g
           id="g4225"
           transform="translate(316,337)"><path
             d="M 0,0 H 120"
             style="fill:none;stroke:#000000;stroke-width:30;stroke-linecap:round;stroke-linejoin:round;stroke-miterlimit:10;stroke-dasharray:none;stroke-opacity:1"
             id="path4227" /></g><g
           id="g4229"
           transform="translate(316,267)"><path
             d="M 0,0 H 120"
             style="fill:none;stroke:#000000;stroke-width:30;stroke-linecap:round;stroke-linejoin:round;stroke-miterlimit:10;stroke-dasharray:none;stroke-opacity:1"
             id="path4231" /></g></g></g></g></svg>
