<?xml version="1.0" encoding="UTF-8" standalone="no"?>
<!-- Created with Inkscape (http://www.inkscape.org/) -->

<svg
   version="1.1"
   id="svg2418"
   xml:space="preserve"
   width="682.66669"
   height="682.66669"
   viewBox="0 0 682.66669 682.66669"
   xmlns="http://www.w3.org/2000/svg"
   xmlns:svg="http://www.w3.org/2000/svg"><defs
     id="defs2422"><clipPath
       clipPathUnits="userSpaceOnUse"
       id="clipPath2432"><path
         d="M 0,512 H 512 V 0 H 0 Z"
         id="path2430" /></clipPath></defs><g
     id="g2424"
     transform="matrix(1.3333333,0,0,-1.3333333,0,682.66667)"><g
       id="g2426"><g
         id="g2428"
         clip-path="url(#clipPath2432)"><g
           id="g2434"
           transform="translate(335,46)"><path
             d="m 0,0 h -280 c -22.092,0 -40,17.908 -40,40 v 160 c 0,22.092 17.908,40 40,40 H 0 c 22.092,0 40,-17.908 40,-40 V 40 C 40,17.908 22.092,0 0,0 Z"
             style="fill:none;stroke:#000000;stroke-width:30;stroke-linecap:round;stroke-linejoin:round;stroke-miterlimit:10;stroke-dasharray:none;stroke-opacity:1"
             id="path2436" /></g><g
           id="g2438"
           transform="translate(375,126)"><path
             d="M 0,0 122,-60 V 140 L 0,80 Z"
             style="fill:none;stroke:#000000;stroke-width:30;stroke-linecap:round;stroke-linejoin:round;stroke-miterlimit:10;stroke-dasharray:none;stroke-opacity:1"
             id="path2440" /></g><g
           id="g2442"
           transform="translate(195,376)"><path
             d="m 0,0 c 0,-49.706 -40.294,-90 -90,-90 -49.706,0 -90,40.294 -90,90 0,49.706 40.294,90 90,90 C -40.294,90 0,49.706 0,0 Z"
             style="fill:none;stroke:#000000;stroke-width:30;stroke-linecap:round;stroke-linejoin:round;stroke-miterlimit:10;stroke-dasharray:none;stroke-opacity:1"
             id="path2444" /></g><g
           id="g2446"
           transform="translate(105,346)"><path
             d="M 0,0 C -16.543,0 -30,13.457 -30,30 -30,46.543 -16.543,60 0,60 16.543,60 30,46.543 30,30 30,13.457 16.543,0 0,0 Z"
             style="fill:none;stroke:#000000;stroke-width:30;stroke-linecap:round;stroke-linejoin:round;stroke-miterlimit:10;stroke-dasharray:none;stroke-opacity:1"
             id="path2448" /></g><g
           id="g2450"
           transform="translate(375,376)"><path
             d="m 0,0 c 0,-49.706 -40.294,-90 -90,-90 -49.706,0 -90,40.294 -90,90 0,49.706 40.294,90 90,90 C -40.294,90 0,49.706 0,0 Z"
             style="fill:none;stroke:#000000;stroke-width:30;stroke-linecap:round;stroke-linejoin:round;stroke-miterlimit:10;stroke-dasharray:none;stroke-opacity:1"
             id="path2452" /></g><g
           id="g2454"
           transform="translate(285,346)"><path
             d="M 0,0 C -16.543,0 -30,13.457 -30,30 -30,46.543 -16.543,60 0,60 16.543,60 30,46.543 30,30 30,13.457 16.543,0 0,0 Z"
             style="fill:none;stroke:#000000;stroke-width:30;stroke-linecap:round;stroke-linejoin:round;stroke-miterlimit:10;stroke-dasharray:none;stroke-opacity:1"
             id="path2456" /></g><path
           d="M 315,136 H 205 v 90 h 110 z"
           style="fill:none;stroke:#000000;stroke-width:30;stroke-linecap:round;stroke-linejoin:round;stroke-miterlimit:10;stroke-dasharray:none;stroke-opacity:1"
           id="path2458" /><g
           id="g2460"
           transform="translate(75,106)"><path
             d="M 0,0 H 70"
             style="fill:none;stroke:#000000;stroke-width:30;stroke-linecap:round;stroke-linejoin:round;stroke-miterlimit:10;stroke-dasharray:none;stroke-opacity:1"
             id="path2462" /></g><g
           id="g2464"
           transform="translate(75,166)"><path
             d="M 0,0 H 70"
             style="fill:none;stroke:#000000;stroke-width:30;stroke-linecap:round;stroke-linejoin:round;stroke-miterlimit:10;stroke-dasharray:none;stroke-opacity:1"
             id="path2466" /></g></g></g></g></svg>
