<svg id="Layer_1" enable-background="new 0 0 246.3 199.452" height="512" viewBox="0 0 246.3 199.452" width="512" xmlns="http://www.w3.org/2000/svg"><g><path d="m238.967 109.662h7.333v-5h-128.427v5h7.334v8.834h5.416v80.294h6.5v-12.17h89.927v12.17h6.5v-80.294h5.417z"/><path d="m164.05 96.941v4h37.698l-20.019-50.312 8.284-45.8-6.397-1.157-16.196 89.547 6.397 1.157 6.567-36.309 15.468 38.874z"/><path d="m140.936 100.941h16.364v-4h-13.357c-.662 1.569-1.704 2.939-3.007 4z"/><path d="m121.26 185.953-5.319-66.4c-.52-6.496-5.943-11.502-12.46-11.502h-31.777c.039-6.471.774-13.09 1.774-19.443l-18.47-20.45c-1.844-2.042-2.783-4.679-2.643-7.427s1.341-5.276 3.382-7.12c1.897-1.713 4.348-2.656 6.902-2.656 2.91 0 5.696 1.238 7.646 3.396l8.054 8.917c1.13-9.009-2.676-18.429-10.174-20.297-8.537-2.129-20.912 2.508-25.947 17.15-6.805 20.174-8.268 33.305-5.682 55.52 2.136 10.991 7.956 15.247 14.35 16.806 1.035.334 2.131.525 3.264.576 1.927.227 3.859.279 5.714.255 1.678-.021 3.185-.072 4.523-.226h27.544l4.398 54.898c.524 6.542 5.995 11.503 12.446 11.503.334 0 .672-.014 1.012-.041 6.883-.551 12.014-6.577 11.463-13.459z"/><path d="m80.38 187.294c-1.868.927-3.154 2.848-3.154 5.074 0 3.13 2.537 5.667 5.667 5.667s5.667-2.537 5.667-5.667c0-2.231-1.293-4.155-3.167-5.08v-3.684l-29.25-9v-21.053h4.25v-1.77c14.848-.979 26-5.119 26-10.08 0-4.807-46.77-5.552-61.266-2.234l-11.212-29.857c4.78 7.458 9.707 11.688 13.024 10.442 5.326-2-17.699-63.319-23.025-61.32-4.341 1.63-4.586 12.128-1.086 25.124-.395-.053-.807-.023-1.206.126-1.292.485-1.947 1.927-1.461 3.22l20.857 55.547c.057.153.132.293.214.427 1.957 4.29 12.312 7.725 25.66 8.605v1.77h4.25v21.053l-29.25 9v3.684c-1.874.924-3.167 2.849-3.167 5.08 0 3.13 2.537 5.667 5.667 5.667s5.667-2.537 5.667-5.667c0-2.226-1.287-4.147-3.155-5.074l24.238-7.458v7.452c-1.874.924-3.167 2.849-3.167 5.08 0 3.13 2.537 5.667 5.667 5.667s5.667-2.537 5.667-5.667c0-2.231-1.293-4.155-3.167-5.08v-7.452z"/><path d="m57.289 55.317c-3.278 2.961-3.536 8.021-.574 11.299l28.629 31.697c1.517 1.679 3.674 2.638 5.937 2.638h43.167c4.418 0 8-3.582 8-8s-3.582-8-8-8h-39.613l-26.247-29.06c-2.96-3.277-8.019-3.535-11.299-.574z"/><path d="m101.82 26.575c.023-.081.055-.157.081-.237l-3.15-.897c-.02.081-.033.163-.056.244-1.172 4.117-5.459 6.504-9.576 5.332s-6.504-5.459-5.332-9.575c.023-.081.055-.157.081-.237l-16.968-4.829c-.55 1.948-.851 4-.851 6.124 0 12.427 10.074 22.5 22.5 22.5 7.381 0 13.932-3.554 18.034-9.043-3.762-1.391-5.879-5.46-4.763-9.382z"/><path d="m84.953 19.045c1.853-2.578 5.18-3.854 8.409-2.935s5.385 3.756 5.603 6.923l4.022 1.145c1.778-2.474 4.914-3.74 8.018-3.025-.697-11.799-10.481-21.153-22.456-21.153-9.465 0-17.56 5.848-20.883 14.125z"/><ellipse cx="109.274" cy="28.697" rx="5.875" ry="5.875" transform="matrix(.274 -.962 .962 .274 51.761 125.941)"/><ellipse cx="91.24" cy="23.564" rx="5.875" ry="5.875" transform="matrix(.274 -.962 .962 .274 43.601 104.869)"/></g></svg>