<svg id="Layer_1" enable-background="new 0 0 174.434 202.356" height="512" viewBox="0 0 174.434 202.356" width="512" xmlns="http://www.w3.org/2000/svg"><g><path d="m28.982 73.869c1.654-3.452 5.199-5.682 9.028-5.682 1.5 0 2.949.331 4.311.982l10.711 5.132c-2.058-8.953-9.026-16.587-16.785-15.661-8.736 1.04-18.66 9.769-18.168 25.245.801 21.275 4.095 34.07 14.399 53.92 2.532 4.086 5.261 6.763 8.065 8.432 1.85 1.292 4.066 2.086 6.462 2.215 1.43.175 2.856.173 4.266.034h46.809l27.268 36.6c2.453 3.294 6.22 5.033 10.034 5.033 2.598 0 5.216-.806 7.459-2.477 5.533-4.124 6.679-11.955 2.555-17.49l-31.018-41.635c-2.371-3.181-6.055-5.032-10.024-5.032h-39.521c-3.551-7.787-5.89-16.556-7.622-25.004l-23.53-11.276c-4.973-2.38-7.081-8.364-4.699-13.336z"/><path d="m25.838 162.023h8.671l16.081 16.082-20.837 20.836c-.779.782-.779 2.049 0 2.829.392.391.904.586 1.416.586s1.023-.195 1.413-.586l20.836-20.836 20.835 20.836c.391.391.903.586 1.416.586.512 0 1.023-.195 1.413-.586.782-.78.782-2.046 0-2.829l-20.835-20.836 16.082-16.082h7.673c2.209 0 3.999-1.792 3.999-4.001s-1.79-3.999-3.999-3.999l-48.839-.002-23.473-56.044c-.853-2.038-3.197-2.999-5.233-2.145-2.038.853-2.999 3.197-2.145 5.235zm27.581 13.253-13.254-13.253h26.507z"/><path d="m40.995 52.382c11.845-3.754 18.4-16.399 14.646-28.24-.275-.865-.602-1.698-.967-2.505-1.537.544-3.145 1.066-4.823 1.548-11.554 3.319-21.601 3.637-22.442.713-.012-.04-.002-.084-.01-.124 2.142 2.11 11.496.691 21.9-3.454 8.036-3.2 14.482-7.147 17.059-10.165 1.003-1.176 1.438-2.215 1.122-3.008-1.126-2.826-11.092-1.513-22.259 2.935-.457.182-.9.37-1.348.557-4.969-2.37-10.811-2.937-16.473-1.142-11.841 3.752-18.397 16.399-14.644 28.24 3.755 11.842 16.399 18.399 28.239 14.645z"/><path d="m64.966 33.029h-2.631v11.063h2.631v-.557l9.183 2.002c-.519 1.342-.813 2.793-.813 4.317 0 1.849.431 3.594 1.178 5.158.58-1.012 1.326-1.893 2.191-2.627-.236-.804-.369-1.652-.369-2.531 0-1.308.285-2.546.789-3.669l17.207 3.752c-.02 2.195-.832 4.202-2.16 5.755.054.112.115.219.165.333.414.95.671 1.94.777 2.941 2.397-2.054 3.982-5.029 4.185-8.384l13.156 2.867v1.932h2.631v-33.643h-2.631v1.933l-45.488 9.914v-.556z"/><path d="m86.095 52.577c-4.111-1.617-8.756.406-10.371 4.518l-10.023 25.495-24.243-11.616c-3.984-1.908-8.762-.227-10.672 3.758-1.908 3.984-.227 8.762 3.76 10.673l-.002-.002 32 15.334c1.094.523 2.273.786 3.457.786.99 0 1.984-.185 2.928-.555 2.074-.815 3.703-2.446 4.519-4.52l13.166-33.499c1.616-4.113-.406-8.757-4.519-10.372z"/><path d="m169.395 3.317-1.413-3.317-43.411 21.403.167.663z"/><path d="m126.448 33.239 47.986-6.558-.505-3.571-47.471 9.448z"/><path d="m169.395 74.255-44.657-18.748-.167.662 43.411 21.403z"/><path d="m126.458 45.015 47.471 9.447.505-3.57-47.986-6.559z"/></g></svg>