<svg id="Layer_1" enable-background="new 0 0 195.748 228.607" height="512" viewBox="0 0 195.748 228.607" width="512" xmlns="http://www.w3.org/2000/svg"><g><path d="m56.323 44.298c12.04 3.068 24.285-4.206 27.353-16.244.225-.879.387-1.759.502-2.637-1.592-.35-3.232-.756-4.913-1.233-11.565-3.285-20.264-8.323-19.434-11.25.011-.038.04-.068.054-.105.716 2.922 9.409 6.655 20.424 8.629 8.515 1.527 16.072 1.581 19.854.379 1.473-.469 2.391-1.122 2.542-1.962.536-2.994-8.62-7.142-20.451-9.265-.484-.087-.96-.162-1.438-.239-2.968-4.637-7.63-8.204-13.385-9.67-12.037-3.067-24.284 4.208-27.353 16.245-3.066 12.039 4.208 24.285 16.245 27.352z"/><path d="m139.749 49.801h30.251v24h-30.251z"/><path d="m130.748 40.467v-3.861h8.079c.674 1.096 1.874 1.834 3.256 1.834h19.666c2.117 0 3.834-1.717 3.834-3.833 0-2.117-1.717-3.834-3.834-3.834h-19.666c-1.381 0-2.581.737-3.256 1.833h-8.079v-5.583h-37l-2.858 13.444z"/><circle cx="108.749" cy="80.188" r="8.201"/><path d="m.95 92.972c1.054 1.963 2.891 3.403 5.048 3.962.02.005 9.978 2.578 19.94 5.235 4.977 1.324 9.955 2.674 13.629 3.716 1.832.52 3.351.965 4.297 1.266.179.056.339.108.471.151 1.098.567 2.343.888 3.663.888 4.42 0 8.001-3.583 8.001-8.001-.047-2.583-1.055-4.055-1.636-4.855-1.268-1.551-1.844-1.724-2.274-2.044-.801-.47-1.091-.562-1.424-.706-1.103-.434-2.056-.717-3.526-1.162-6.264-1.867-19.69-5.423-28.565-7.746 1.524-3.916 3.488-8.712 5.562-13.113.055-.115.109-.228.163-.343l1.84.787c-.064.134-.127.269-.191.403-1.486 3.152-3.059 6.812-4.69 10.902 9.346 2.452 20.772 5.501 26.453 7.191l.21.064c1.365.414 2.349.712 3.477 1.155l.192.079c.32.133.718.298 1.509.759l.093.057.089.066c.05.035.101.066.158.102.636.401 1.351.906 2.474 2.284l.035.045.034.044c.584.809 1.957 2.696 2.016 5.993.003 5.553-4.484 10.04-10 10.04-1.533 0-3.054-.357-4.416-1.032l-.318-.102c-.901-.285-2.368-.717-4.241-1.249-3.364-.954-8.191-2.27-13.599-3.707-2.472-.659-4.949-1.315-7.274-1.928.873 4.188 1.89 8.539 3.003 13.193.081.524.184 1.048.334 1.571.206.727 3.334 12.491 3.328 30.094-.002 17.102-2.918 39.616-14.041 63.328-2.934 6.25-.244 13.692 6.006 16.625 1.717.805 3.523 1.186 5.301 1.186 4.697.001 9.199-2.661 11.324-7.195 13.01-27.736 16.412-54.033 16.412-73.944-.003-5.078-.225-9.741-.564-13.928.099.045.191.099.291.141.478.223 5.44 2.688 10.23 9.024 4.902 6.559 10.091 17.209 10.15 35.925 0 9.35-1.362 20.708-4.932 34.386-1.295 4.966.588 10.009 4.382 12.989-.019 1.433.985 2.715 2.444 2.986.186.035.371.052.553.052.719 0 1.395-.261 1.924-.705.938.215 1.876.337 2.801.337 5.553.001 10.621-3.725 12.088-9.349 4.025-15.438 5.738-28.914 5.74-40.697.037-12.227-1.881-22.617-4.865-31.292l1.592-8.553h35.368l16.335 87.804c.302 1.63 1.867 2.706 3.496 2.401 1.631-.302 2.706-1.869 2.402-3.497l-25.526-137.21c.748-1.46 1.286-3.041 1.582-4.709.115-.655.188-1.323.226-2.002h12.214v-38.667h-58v4.223h-8.999l4.5 24.5h4.499v9.945h12.218c.038.679.11 1.347.226 2.002.402 2.269 1.252 4.38 2.465 6.238l-3.032 16.3-27.114-4.31c-1.229-12.317 2.184-21.154 7.885-30.944l.748.357-3.526-19.186c-.14-.032-.278-.058-.418-.082-.077-.021-.155-.054-.231-.072-12.265-2.727-24.528-5.457-36.795-8.184-1.641-.38-4.177.096-6.685 1.129-1.054.269-1.97.668-2.732 1.089-2.481 1.429-3.91 3.066-5.313 4.789-2.369 3.026-4.365 6.597-6.318 10.471-.523 1.045-1.037 2.113-1.541 3.188-5.061 10.79-9.083 22.503-9.144 22.653-.732 2.107-.544 4.436.509 6.399zm91.692 40.045 4.178-22.464 12.199 1.939c.105.017.211.025.314.025.474 0 .934-.168 1.3-.48.445-.381.7-.934.7-1.519v-13.716c2.736-.423 5.25-1.499 7.385-3.073l7.309 39.287h-33.385zm4.453-52.828c0-6.427 5.228-11.654 11.654-11.654s11.653 5.228 11.653 11.654-5.228 11.652-11.653 11.652c-6.426.001-11.654-5.226-11.654-11.652zm2.723 14.248c2.214 1.391 4.768 2.282 7.516 2.512v11.222l-9.781-1.555zm-8.926 15.173-5.076 27.285c-2.373-4.606-5.031-8.532-7.755-11.795-3.755-4.535-7.521-7.82-10.709-10.145-1.023-3.383-1.769-6.513-2.275-9.449z"/><path d="m172.248 75.967 1.252.444 22.248 7.89v-45l-22.248 7.89-1.252.444z"/></g></svg>